<svg width="149" height="152" viewBox="0 0 149 152" fill="none" xmlns="http://www.w3.org/2000/svg">
<path d="M1 98.6025C1.00002 91.4668 1.00004 81.9383 1.00062 70.0171C1.00065 69.4587 1.45794 69.0071 2.01624 69.0159L32.8923 69.4983C32.9642 69.4994 33.0372 69.5086 33.1071 69.5252C50.0319 73.5398 57.5047 83.0314 59.5005 98V128C59.5005 128.552 59.0528 129 58.5005 129H31.0007C25.5073 128.501 5.55032 125.009 1.0169 100.592C1.00584 100.532 1 100.47 1 100.41L1 98.6025Z" fill="#0C8141" stroke="#0C8141"/>
<path d="M1 30.6025C1.00002 23.4668 1.00004 13.9383 1.00062 2.01706C1.00065 1.45868 1.45794 1.00714 2.01624 1.01587L32.8923 1.49831C32.9642 1.49943 33.0372 1.50861 33.1071 1.5252C50.0319 5.53981 57.5047 15.0314 59.5005 30V60C59.5005 60.5523 59.0528 61 58.5005 61H31.0007C25.5073 60.5006 5.55032 57.0087 1.0169 32.5915C1.00584 32.5319 1 32.4705 1 32.4099L1 30.6025Z" fill="#0C8141" stroke="#0C8141"/>
<rect x="68" y="1" width="13" height="150" rx="1" fill="#0C8141"/>
<path d="M148.5 51.6025C148.5 44.4668 148.5 34.9383 148.5 23.0171C148.5 22.4587 148.043 22.0071 147.484 22.0159L116.608 22.4983C116.536 22.4994 116.463 22.5086 116.393 22.5252C99.4686 26.5398 91.9958 36.0314 90 51V81C90 81.5523 90.4477 82 91 82H118.5C123.993 81.5006 143.95 78.0087 148.484 53.5915C148.495 53.5319 148.5 53.4705 148.5 53.4099L148.5 51.6025Z" fill="#0C8141" stroke="#0C8141"/>
<path d="M148.5 120.603C148.5 113.467 148.5 103.938 148.5 92.0171C148.5 91.4587 148.043 91.0071 147.484 91.0159L116.608 91.4983C116.536 91.4994 116.463 91.5086 116.393 91.5252C99.4686 95.5398 91.9958 105.031 90 120V150C90 150.552 90.4477 151 91 151H118.5C123.993 150.501 143.95 147.009 148.484 122.592C148.495 122.532 148.5 122.47 148.5 122.41L148.5 120.603Z" fill="#0C8141" stroke="#0C8141"/>
</svg>